<svg width="311" height="111" viewBox="0 0 311 111" fill="none" xmlns="http://www.w3.org/2000/svg">
<path d="M45.56 70.8C44.5467 70.8 43.6133 70.5467 42.76 70.04C41.9333 69.5333 41.2667 68.8667 40.76 68.04C40.2533 67.1867 40 66.2533 40 65.24V47.56C40 46.5467 40.2533 45.6267 40.76 44.8C41.2667 43.9467 41.9333 43.2667 42.76 42.76C43.6133 42.2533 44.5467 42 45.56 42H63.24C64.2533 42 65.1733 42.2533 66 42.76C66.8533 43.2667 67.5333 43.9467 68.04 44.8C68.5467 45.6267 68.8 46.5467 68.8 47.56V65.24C68.8 66.2533 68.5467 67.1867 68.04 68.04C67.5333 68.8667 66.8533 69.5333 66 70.04C65.1733 70.5467 64.2533 70.8 63.24 70.8H45.56ZM45.76 65.48H62.96C63.0933 65.48 63.2133 65.44 63.32 65.36C63.4267 65.2533 63.48 65.1333 63.48 65V47.8C63.48 47.6667 63.4267 47.56 63.32 47.48C63.2133 47.3733 63.0933 47.32 62.96 47.32H45.76C45.6267 47.32 45.5067 47.3733 45.4 47.48C45.32 47.56 45.28 47.6667 45.28 47.8V65C45.28 65.1333 45.32 65.2533 45.4 65.36C45.5067 65.44 45.6267 65.48 45.76 65.48Z" fill="#AC70FF"/>
<path d="M80.8 70.8V42H86.6L97.04 54.44L107.44 42H113.28V70.8H107.96V49.68L97.04 62.68L86.08 49.72V70.8H80.8Z" fill="#AC70FF"/>
<path d="M125.28 70.8V42H131.08L148.76 63.04V42H154.08V70.8H148.28L130.56 49.72V70.8H125.28Z" fill="#AC70FF"/>
<path d="M166.08 70.8V42H171.32V70.8H166.08Z" fill="#AC70FF"/>
<path d="M188.52 70.8C187.56 70.8 186.693 70.56 185.92 70.08C185.147 69.6 184.52 68.9733 184.04 68.2C183.56 67.4267 183.32 66.56 183.32 65.6V65H187.64V65.48C187.64 65.7467 187.733 65.9867 187.92 66.2C188.133 66.3867 188.373 66.48 188.64 66.48H201.6C201.867 66.48 202.093 66.3867 202.28 66.2C202.467 65.9867 202.56 65.7467 202.56 65.48V62.36C202.56 62.0933 202.467 61.8667 202.28 61.68C202.093 61.4667 201.867 61.36 201.6 61.36H188.52C187.56 61.36 186.693 61.1333 185.92 60.68C185.147 60.2 184.52 59.5733 184.04 58.8C183.56 58 183.32 57.12 183.32 56.16V52.8C183.32 51.84 183.56 50.9733 184.04 50.2C184.52 49.4267 185.147 48.8 185.92 48.32C186.693 47.84 187.56 47.6 188.52 47.6H201.72C202.68 47.6 203.547 47.84 204.32 48.32C205.12 48.8 205.747 49.4267 206.2 50.2C206.68 50.9733 206.92 51.84 206.92 52.8V53.4H202.56V52.92C202.56 52.6533 202.467 52.4267 202.28 52.24C202.093 52.0267 201.867 51.92 201.6 51.92H188.64C188.373 51.92 188.133 52.0267 187.92 52.24C187.733 52.4267 187.64 52.6533 187.64 52.92V56.04C187.64 56.3067 187.733 56.5467 187.92 56.76C188.133 56.9467 188.373 57.04 188.64 57.04H201.72C202.68 57.04 203.547 57.28 204.32 57.76C205.12 58.2133 205.747 58.84 206.2 59.64C206.68 60.4133 206.92 61.28 206.92 62.24V65.6C206.92 66.56 206.68 67.4267 206.2 68.2C205.747 68.9733 205.12 69.6 204.32 70.08C203.547 70.56 202.68 70.8 201.72 70.8H188.52Z" fill="#6B7EFF"/>
<path d="M218.92 70.8V47.6H248.56C249.547 47.6 250.427 47.84 251.2 48.32C251.973 48.8 252.587 49.4267 253.04 50.2C253.52 50.9733 253.76 51.84 253.76 52.8V70.8H249.48V52.92C249.48 52.6533 249.373 52.4267 249.16 52.24C248.973 52.0267 248.747 51.92 248.48 51.92H239.56C239.267 51.92 239.027 52.0267 238.84 52.24C238.653 52.4267 238.56 52.6533 238.56 52.92V70.8H234.2V52.92C234.2 52.6533 234.093 52.4267 233.88 52.24C233.693 52.0267 233.467 51.92 233.2 51.92H224.24C223.973 51.92 223.747 52.0267 223.56 52.24C223.373 52.4267 223.28 52.6533 223.28 52.92V70.8H218.92Z" fill="#6B7EFF"/>
<path d="M265.76 70.8V47.6H270.08V70.8H265.76ZM265.76 44.32V40H270.08V44.32H265.76Z" fill="#6B7EFF"/>
</svg>
